<svg xmlns="http://www.w3.org/2000/svg" viewBox="0 0 256 256"><defs><linearGradient x1="0" y1="0" x2="1" y2="0" gradientUnits="userSpaceOnUse" gradientTransform="rotate(41.1 123.7 82.5) scale(76.57899)" spreadMethod="pad" id="a"><stop offset="0" stop-color="#89d3e4"/><stop offset="1" stop-color="#3db0e4"/></linearGradient><linearGradient x1="0" y1="0" x2="1" y2="0" gradientUnits="userSpaceOnUse" gradientTransform="translate(9.5 33.2) scale(124.4838)" spreadMethod="pad" id="b"><stop offset="0" stop-color="#d2ecf2"/><stop offset="1" stop-color="#b4dff5"/></linearGradient><linearGradient x1="0" y1="0" x2="1" y2="0" gradientUnits="userSpaceOnUse" gradientTransform="rotate(32.8 38.4 213.7) scale(56.25162)" spreadMethod="pad" id="c"><stop offset="0" stop-color="#89d3e4"/><stop offset="1" stop-color="#3db0e4"/></linearGradient></defs><path fill="#3db0e4" d="M0 0h256v256H0z"/><path fill="#3970b7" d="m223.3 144.6-45.5-33-8.4-19.7a48.7 48.7 0 0 1 54 52.2"/><path fill="url(#a)" d="M103 29 72.3 64v.1a51.2 51.2 0 0 1-4-8.2c-5.8-15.9-19-29-34-33.2A36 36 0 0 1 97 15.2c3 4.1 5 8.9 6 13.9" transform="translate(32.4 70.7) scale(1.4117)"/><path fill="url(#b)" d="M26.3 81A26 26 0 0 1 0 54.7a26.3 26.3 0 0 1 26.3-26.3S51 26.8 66.1 54.7c2 3.6 4.1 6.7 6.3 9.2V81" transform="translate(32.4 70.7) scale(1.4117)"/><path fill="url(#c)" d="M135.4 54.8A26.3 26.3 0 0 1 109.1 81H35.5c7.8-.3 25.6-2.7 36.7-17l.1-.1c2-2.6 3.8-5.7 5.3-9.2C85 37 93.8 30.6 103 29a28 28 0 0 1 32.3 23.2l.1 2.5" transform="translate(32.4 70.7) scale(1.4117)"/></svg>
