<svg viewBox="0 0 135.5 81.1" xmlns="http://www.w3.org/2000/svg"><defs><linearGradient x1="0" y1="0" x2="1" y2="0" gradientUnits="userSpaceOnUse" gradientTransform="scale(5973.4 -5973.4) rotate(41.1 5.7 .9)" spreadMethod="pad" id="a"><stop offset="0" stop-color="#89d3e4"/><stop offset="1" stop-color="#3db0e4"/></linearGradient><linearGradient x1="0" y1="0" x2="1" y2="0" gradientUnits="userSpaceOnUse" gradientTransform="matrix(11235 0 0 -11235 7009.7 15865.7)" spreadMethod="pad" id="b"><stop offset="0" stop-color="#d2ecf2"/><stop offset="1" stop-color="#b4dff5"/></linearGradient><linearGradient x1="0" y1="0" x2="1" y2="0" gradientUnits="userSpaceOnUse" gradientTransform="rotate(32.8 38.4 213.8) scale(56.25162)" spreadMethod="pad" id="c"><stop offset="0" stop-color="#89d3e4"/><stop offset="1" stop-color="#3db0e4"/></linearGradient></defs><path d="M135.3 52.3 103 29.1l-6-14a34.5 34.5 0 0 1 38.3 37.1" fill="#3970b7"/><path d="M13354.8 14031.3c-8.5 1.5-2395.3-2721-2395.3-2721l-8-10.2c-113.1 192.1-213.4 405.9-300.5 641.2-208.2 562.7-493.9 1052.5-849.8 1455.8-287.4 325.9-620 595.8-989 802.4a3509.8 3509.8 0 0 1-820.5 333.5c413.2 1035.4 1425 1767 2607.8 1767 945.4 0 1781.6-467.4 2290.2-1183.8h.1a2793.2 2793.2 0 0 0 465-1084.9" fill="url(#a)" transform="matrix(.01282 0 0 -.01282 -68.1 209)"/><path d="M8527.6 11546.5c-1311.7-38.3-2376 1063.8-2376 2376.2 0 1312.1 1063.7 2375.8 2376 2375.8 0 0 2224 141.8 3592.7-2375.8 177.1-326 367.1-600.6 564.7-831.6v-1544.6" fill="url(#b)" transform="matrix(.01108 0 0 -.01108 -68.1 209)"/><path d="M135.5 54.8a26.3 26.3 0 0 1-26.3 26.3H35.6c7.8-.3 25.6-2.7 36.7-17l.1-.1c2-2.6 3.8-5.7 5.3-9.2 7.4-17.7 17.8-23.6 24.6-25.5l.8-.2c22.8-2.6 31 12.2 32.3 23.2l.1 2.5" fill="url(#c)"/></svg>
