<svg xmlns="http://www.w3.org/2000/svg" viewBox="0 0 135.4 81.1"><defs><linearGradient id="a" spreadMethod="pad" gradientTransform="rotate(41.1 123.7 82.5) scale(76.57899)" gradientUnits="userSpaceOnUse" y2="0" x2="1" y1="0" x1="0"><stop stop-color="#89d3e4" offset="0"/><stop stop-color="#3db0e4" offset="1"/></linearGradient><linearGradient id="b" spreadMethod="pad" gradientTransform="translate(9.5 33.2) scale(124.4838)" gradientUnits="userSpaceOnUse" y2="0" x2="1" y1="0" x1="0"><stop stop-color="#d2ecf2" offset="0"/><stop stop-color="#b4dff5" offset="1"/></linearGradient><linearGradient id="c" spreadMethod="pad" gradientTransform="rotate(32.8 38.4 213.7) scale(56.25162)" gradientUnits="userSpaceOnUse" y2="0" x2="1" y1="0" x1="0"><stop stop-color="#89d3e4" offset="0"/><stop stop-color="#3db0e4" offset="1"/></linearGradient></defs><path fill="#3970b7" d="M135.2 52.3 103 29l-6-14a34.5 34.5 0 0 1 38.3 37"/><path fill="url(#a)" d="M103 29 72.3 64v.1a51.2 51.2 0 0 1-4-8.2c-5.8-15.9-19-29-34-33.2A36 36 0 0 1 97 15.2c3 4.1 5 8.9 6 13.9"/><path fill="url(#b)" d="M26.3 81A26 26 0 0 1 0 54.7a26.3 26.3 0 0 1 26.3-26.3S51 26.8 66.1 54.7c2 3.6 4.1 6.7 6.3 9.2V81"/><path fill="url(#c)" d="M135.4 54.8A26.3 26.3 0 0 1 109.1 81H35.5c7.8-.3 25.6-2.7 36.7-17l.1-.1c2-2.6 3.8-5.7 5.3-9.2C85 37 93.8 30.6 103 29a28 28 0 0 1 32.3 23.2l.1 2.5"/></svg>
