<svg viewBox="0 0 135.5 81.1" xmlns="http://www.w3.org/2000/svg"><defs><clipPath clipPathUnits="userSpaceOnUse" id="a"><path d="M17614 18506.2c-28-6.8-56.5-14.1-85.9-22.3-700.1-193.5-1768.9-794.6-2529.9-2621.2-150.3-360.8-335.1-673.8-543.5-945.3-3.6-4.4-7-8.9-10.5-13.4-149.2 253.4-281.4 535.3-396.3 845.7-274.6 742.1-651.5 1388.2-1120.9 1920.1-379 429.8-817.8 785.8-1304.4 1058.3-417.8 233.9-800.3 366.1-1082.1 439.9 544.9 1365.5 1879.5 2330.5 3439.4 2330.5 1247 0 2349.9-616.5 3020.6-1561.4h.2a3684.9 3684.9 0 0 0 613.3-1430.9z"/></clipPath><linearGradient x1="0" y1="0" x2="1" y2="0" gradientUnits="userSpaceOnUse" gradientTransform="scale(5973.4 -5973.4) rotate(41.1 5.7 .9)" spreadMethod="pad" id="b"><stop offset="0" stop-color="#89d3e4"/><stop offset="1" stop-color="#3db0e4"/></linearGradient><clipPath clipPathUnits="userSpaceOnUse" id="c"><path d="M18244.7 13157.4H9717.3c-1495.4 0-2707.6 1212.2-2707.6 2707.6 0 1495.2 1212.2 2707.3 2707.6 2707.3 0 0 2534.2 161.6 4093.9-2707.3 201.8-371.4 418.3-684.4 643.5-947.6-1137.8-1481.5-2982-1725-3789.5-1757.2z"/></clipPath><linearGradient x1="0" y1="0" x2="1" y2="0" gradientUnits="userSpaceOnUse" gradientTransform="matrix(11235 0 0 -11235 7009.7 15865.7)" spreadMethod="pad" id="d"><stop offset="0" stop-color="#d2ecf2"/><stop offset="1" stop-color="#b4dff5"/></linearGradient><clipPath clipPathUnits="userSpaceOnUse" id="e"><path d="M20950 15862.7c0-1494.1-1211.2-2705.3-2705.3-2705.3l-7579.5 2.8c805 32 2640.4 274.2 3779 1743.8 3.5 4.5 6.9 9 10.5 13.4 208.4 271.5 393.2 584.5 543.5 945.3 761 1826.6 1829.8 2427.7 2529.9 2621.2 29.4 8.2 57.9 15.5 85.9 22.3 379.3 90.9 630.7 61.8 630.7 61.8 1407.7 0 2564.4-1075.3 2693.3-2449.2 7.9-84.4 12-169.7 12-256.1z"/></clipPath><linearGradient x1="0" y1="0" x2="1" y2="0" gradientUnits="userSpaceOnUse" gradientTransform="scale(4502.68 -4502.68) rotate(32.8 7.6 4)" spreadMethod="pad" id="f"><stop offset="0" stop-color="#89d3e4"/><stop offset="1" stop-color="#3db0e4"/></linearGradient></defs><path d="M135.3 52.3a26.3 26.3 0 0 0-26.1-23.8s-2.5-.3-6.2.6c-1-5.1-3-9.8-6-14a34.5 34.5 0 0 1 38.3 37.1" fill="#3970b7"/><g clip-path="url(#a)" transform="matrix(.00972 0 0 -.00972 -68.1 209)"><path d="M13354.8 14031.3c-21.2-5.2-42.8-10.7-65.1-16.9-530.8-146.7-1341.2-602.5-1918.2-1987.4-113.9-273.6-254-510.9-412-716.7a356 356 0 0 1-8-10.2c-113.1 192.1-213.4 405.9-300.5 641.2-208.2 562.7-493.9 1052.5-849.8 1455.8-287.4 325.9-620 595.8-989 802.4a3509.8 3509.8 0 0 1-820.5 333.5c413.2 1035.4 1425 1767 2607.8 1767 945.4 0 1781.6-467.4 2290.2-1183.8h.1a2793.2 2793.2 0 0 0 465-1084.9" fill="url(#b)" transform="scale(1.31893)"/></g><g clip-path="url(#c)" transform="matrix(.00972 0 0 -.00972 -68.1 209)"><path d="M16011 11546.6H8527.6c-1312.3 0-2376 1063.7-2376 2376.1 0 1312.1 1063.7 2375.8 2376 2375.8 0 0 2224 141.8 3592.7-2375.8 177.1-326 367.1-600.6 564.7-831.6-998.5-1300.1-2616.9-1513.8-3325.5-1542.1l6651.5-2.4" fill="url(#d)" transform="scale(1.13951)"/></g><g clip-path="url(#e)" transform="matrix(.00972 0 0 -.00972 -68.1 209)"><path d="M16300 12341.9c0-1162.5-942.4-2104.9-2104.8-2104.9l-5897.2 2.2c626.3 24.9 2054.3 213.3 2940.2 1356.8l8.2 10.4c162.1 211.2 305.9 454.7 422.8 735.5 592.1 1421.1 1423.7 1888.8 1968.4 2039.4 22.9 6.3 45.1 12 66.8 17.3 295.2 70.7 490.8 48.1 490.8 48.1 1095.2 0 1995.2-836.6 2095.5-1905.6 6.1-65.6 9.3-132 9.3-199.2" fill="url(#f)" transform="scale(1.28528)"/></g></svg>
